<mxfile host="app.diagrams.net" modified="2022-03-02T14:46:58.928Z" agent="5.0 (Windows NT 10.0; Win64; x64) AppleWebKit/537.36 (KHTML, like Gecko) Chrome/98.0.4758.102 Safari/537.36" etag="3tWdDwWtv3Ut08R-s1cd" version="16.6.4" type="github">
  <diagram id="Q15n-7uTJWnTs2A8CEmc" name="Page-1">
    <mxGraphModel dx="1717" dy="1016" grid="0" gridSize="10" guides="1" tooltips="1" connect="1" arrows="1" fold="1" page="1" pageScale="1" pageWidth="827" pageHeight="1169" math="0" shadow="0">
      <root>
        <mxCell id="0" />
        <mxCell id="1" parent="0" />
        <mxCell id="vj6-JH2qqLqlDhNem0CH-1" value="" style="rounded=0;whiteSpace=wrap;html=1;sketch=1;fillColor=#f5f5f5;fontColor=#333333;strokeColor=#E6E6E6;" vertex="1" parent="1">
          <mxGeometry width="827" height="376" as="geometry" />
        </mxCell>
        <mxCell id="vj6-JH2qqLqlDhNem0CH-2" value="" style="shape=image;html=1;verticalAlign=top;verticalLabelPosition=bottom;labelBackgroundColor=#ffffff;imageAspect=0;aspect=fixed;image=https://cdn4.iconfinder.com/data/icons/ionicons/512/icon-navicon-128.png;sketch=1;strokeColor=#E6E6E6;" vertex="1" parent="1">
          <mxGeometry x="730" y="30" width="33" height="33" as="geometry" />
        </mxCell>
        <mxCell id="vj6-JH2qqLqlDhNem0CH-13" value="" style="ellipse;whiteSpace=wrap;html=1;rounded=0;labelBackgroundColor=none;sketch=1;strokeColor=#CCCCCC;fillColor=#E6E6E6;fontColor=#333333;fillStyle=auto;" vertex="1" parent="1">
          <mxGeometry x="370" y="37" width="296" height="299" as="geometry" />
        </mxCell>
        <mxCell id="vj6-JH2qqLqlDhNem0CH-7" value="" style="group" vertex="1" connectable="0" parent="1">
          <mxGeometry x="356" y="33" width="280" height="30" as="geometry" />
        </mxCell>
        <mxCell id="vj6-JH2qqLqlDhNem0CH-3" value="Home" style="fillColor=none;strokeColor=none;fontSize=14;fontColor=#666666;sketch=1;" vertex="1" parent="vj6-JH2qqLqlDhNem0CH-7">
          <mxGeometry width="80" height="30" as="geometry" />
        </mxCell>
        <mxCell id="vj6-JH2qqLqlDhNem0CH-4" value="Menu" style="fillColor=none;strokeColor=none;fontSize=14;fontColor=#666666;sketch=1;" vertex="1" parent="vj6-JH2qqLqlDhNem0CH-7">
          <mxGeometry x="80" width="60" height="30" as="geometry" />
        </mxCell>
        <mxCell id="vj6-JH2qqLqlDhNem0CH-5" value="About" style="fillColor=none;strokeColor=none;fontSize=14;fontColor=#666666;sketch=1;" vertex="1" parent="vj6-JH2qqLqlDhNem0CH-7">
          <mxGeometry x="140" width="60" height="30" as="geometry" />
        </mxCell>
        <mxCell id="vj6-JH2qqLqlDhNem0CH-6" value="Contact" style="fillColor=none;strokeColor=none;fontSize=14;fontColor=#666666;sketch=1;" vertex="1" parent="vj6-JH2qqLqlDhNem0CH-7">
          <mxGeometry x="200" width="80" height="30" as="geometry" />
        </mxCell>
        <mxCell id="vj6-JH2qqLqlDhNem0CH-11" value="CTA" style="html=1;shadow=0;dashed=0;shape=mxgraph.bootstrap.rrect;rSize=5;strokeColor=#666666;strokeWidth=1;fillColor=#f5f5f5;fontColor=#333333;whiteSpace=wrap;align=center;verticalAlign=middle;spacingLeft=0;fontStyle=0;fontSize=16;spacing=5;rounded=0;labelBackgroundColor=none;sketch=0;" vertex="1" parent="1">
          <mxGeometry x="649" y="30" width="60" height="40" as="geometry" />
        </mxCell>
        <mxCell id="vj6-JH2qqLqlDhNem0CH-12" value="" style="ellipse;whiteSpace=wrap;html=1;rounded=0;labelBackgroundColor=none;sketch=1;fontColor=#333333;strokeColor=#666666;fillColor=#f5f5f5;" vertex="1" parent="1">
          <mxGeometry x="61" y="30" width="61.5" height="41" as="geometry" />
        </mxCell>
        <mxCell id="vj6-JH2qqLqlDhNem0CH-14" value="Real Italian Food" style="text;html=1;strokeColor=none;fillColor=none;align=center;verticalAlign=middle;whiteSpace=wrap;rounded=0;labelBackgroundColor=none;sketch=1;fontColor=#666666;fontSize=33;" vertex="1" parent="1">
          <mxGeometry x="184" y="143" width="253" height="34" as="geometry" />
        </mxCell>
        <mxCell id="vj6-JH2qqLqlDhNem0CH-15" value="About us" style="text;html=1;strokeColor=none;fillColor=none;align=center;verticalAlign=middle;whiteSpace=wrap;rounded=0;labelBackgroundColor=none;sketch=1;fontSize=16;fontColor=#666666;" vertex="1" parent="1">
          <mxGeometry x="184" y="181" width="75" height="30" as="geometry" />
        </mxCell>
        <mxCell id="vj6-JH2qqLqlDhNem0CH-17" value="" style="endArrow=classic;html=1;rounded=0;fontSize=16;fontColor=#666666;endWidth=5.957336108220604;strokeColor=#666666;" edge="1" parent="1">
          <mxGeometry width="50" height="50" relative="1" as="geometry">
            <mxPoint x="268" y="198" as="sourcePoint" />
            <mxPoint x="295" y="198" as="targetPoint" />
          </mxGeometry>
        </mxCell>
        <mxCell id="vj6-JH2qqLqlDhNem0CH-18" value="" style="rounded=0;whiteSpace=wrap;html=1;labelBackgroundColor=none;sketch=1;fillStyle=auto;fontSize=16;fontColor=#666666;strokeColor=#CCCCCC;fillColor=#E6E6E6;" vertex="1" parent="1">
          <mxGeometry x="127" y="473" width="263" height="147" as="geometry" />
        </mxCell>
        <mxCell id="vj6-JH2qqLqlDhNem0CH-19" value="" style="rounded=0;whiteSpace=wrap;html=1;labelBackgroundColor=none;sketch=1;fillStyle=auto;fontSize=16;fontColor=#666666;strokeColor=#CCCCCC;fillColor=#E6E6E6;" vertex="1" parent="1">
          <mxGeometry x="450" y="473" width="263" height="147" as="geometry" />
        </mxCell>
      </root>
    </mxGraphModel>
  </diagram>
</mxfile>
